# xmcd CD database file
#
# Track frame offsets:
#	151
#	16695
#	34355
#	47891
#	63826
#	80661
#	95176
#	112834
#	131480
#	148390
#
# Disc length: 2158 seconds
#
# Revision: 1
# Processed by: cddbd v1.5.1PL0 Copyright (c) Steve Scherf et al.
# Submitted via: CDex 1.50beta10
#
DISCID=8a086c0a
DTITLE=Ricardo Arjona y 7 Grandes Idolos de La Balada Romántica - 100 años de Musica (DIMSA)
DYEAR=2004
DGENRE=Romántico
TTITLE0=Ricardo Arjona - Que Voy A Hacer Conmigo
TTITLE1=Gualberto Castro - Que Mal Amada Estas
TTITLE2=Anacani - Soy Rebelde
TTITLE3=Los Lazos - Como Has Hecho
TTITLE4=Ricardo Arjona - Siempre Lo Mismo
TTITLE5=Lila Deneken - Se Solicita Una Aventura
TTITLE6=Los Terrícolas - Hoy Te Confieso
TTITLE7=Lupita D'Alessio - Mentiras
TTITLE8=Enrique Guzmán - Jamas Te Vi Tan Linda
TTITLE9=Ricardo Arjona - La Mujer Que No Soñe
EXTD=YEAR: 2004
EXTT0=
EXTT1=
EXTT2=
EXTT3=
EXTT4=
EXTT5=
EXTT6=
EXTT7=
EXTT8=
EXTT9=
PLAYORDER=
